<svg width="609" height="198" xmlns="http://www.w3.org/2000/svg" xmlns:xlink="http://www.w3.org/1999/xlink" xml:space="preserve" overflow="hidden"><defs><clipPath id="clip0"><rect x="348" y="23" width="609" height="198"/></clipPath></defs><g clip-path="url(#clip0)" transform="translate(-348 -23)"><path d="M95.9101 199.181 92.9391 192.579 54.996 107.896 54.2165 106.159 52.4922 106.955 51.3406 107.484 44.586 110.8C43.5895 109.13 41.9355 106.33 40.7859 104.389L25.5132 78.5781 21.5187 71.8401 28.1265 67.6533C34.3766 63.6672 41.4351 59.9849 49.1139 56.7058 64.4032 50.1931 80.0088 46.7487 94.2396 46.7487 98.9204 46.7487 103.45 47.127 107.705 47.8672 114.799 48.6756 121.359 51.0036 126.778 54.6135 134.854 59.129 141.212 66.1337 144.803 74.4203 147.751 81.2307 148.326 89.2072 146.453 97.4814L145.353 102.342 149.391 99.4146C152.111 97.4401 155.068 95.753 158.178 94.3988 163.553 92.1265 169.115 90.9667 174.687 90.9667 179.961 90.9667 184.948 92.0108 189.511 94.0638L192.453 95.3829 192.157 92.172 190.877 78.2969 190.671 76.0971 188.529 76.6533 182.101 78.3197 180.974 54.6941 228.06 39.6509 227.679 58.0125 231.225 58.9222 241.509 39.2146 272.309 66.5307 273.593 67.674 274.846 66.4955C279.065 62.53 284.067 59.3481 289.709 57.0387L292.066 56.0752 290.451 54.1049 284.898 47.3358 320.259 6.57678 338.777 34.2092 310.43 49.4468 304.134 52.8334 311.281 52.9843C324.72 53.2675 336.621 58.9532 344.786 68.991L347.738 72.6319 349.64 74.9703 346.481 78.3238 344.374 80.5609 337.291 88.1156 335.974 89.5194 337.398 90.8054 344.037 96.7826 346.605 99.092 347.155 95.6848 349.702 79.9158 350.353 75.8676 350.374 75.8903 351.044 71.7553 354.846 48.475 388.791 48.475 390.383 48.475 390.651 46.9058 391.315 42.9196 421.883 42.9196 429.289 89.689 429.771 92.7179 432.252 90.9171C435.252 88.7379 438.566 86.9454 442.106 85.5911 446.818 83.8131 451.668 82.9054 456.51 82.9054 462.274 82.9054 467.871 84.2369 472.711 86.7531 472.839 86.8461 473.021 86.966 473.269 87.0653L475.566 87.9874 475.837 85.5229 476.391 80.4265 476.573 78.7559 474.93 78.39 468.731 77.0047 468.429 52.6245 515.687 63.0262 519.237 80.5691 522.906 80.6415 526.568 65.5445 565.975 75.1274 525.704 196.497 496.887 187.447 496.682 176.268 496.653 174.666 495.063 174.443 466.308 170.384 467.935 155.769 468.322 152.291 465.21 153.885C463.736 154.636 462.31 155.266 460.962 155.763 456.26 157.541 451.445 158.44 446.65 158.44 445.263 158.44 443.869 158.364 442.513 158.211L440.057 157.936 440.441 160.375 442.465 173.229 400.513 165.829 398.316 146.755 397.609 140.641 394.782 146.105 389.953 155.419 381.06 139.003 378.387 134.072 377.543 139.613 375.606 152.32 338.837 146.533 341.688 129.094 342.34 125.095 338.864 127.173C332.846 130.781 325.934 133.496 317.74 135.474 314.877 136.173 311.885 136.657 308.84 136.909L307.115 137.054 307.115 138.784 307.115 171.695 234.705 135.908 231.984 134.566 231.986 137.6 232.036 168.207 199.66 172.977 198.3 158.279 197.932 154.346 195.11 157.113C190.832 161.3 186.013 164.546 180.788 166.762 175.443 169.034 169.929 170.184 164.403 170.184 158.885 170.184 153.699 169.03 148.99 166.774 140.265 162.577 133.971 154.963 131.271 145.355 129.985 140.841 129.635 136.076 130.233 131.184L130.872 125.974 127.072 129.592C124.392 132.135 121.506 134.564 118.487 136.795L117.464 137.55 117.787 138.78 128.693 180.643 130.62 188.072 123.317 190.394 102.783 196.968 95.9101 199.181 95.9101 199.181ZM105.127 86.7986C104.069 86.7986 102.975 86.8957 101.873 87.0942L100.475 87.363 98.4118 87.76 99.0341 89.7696 99.4394 91.0763 105.311 110.29 105.898 112.136 106.771 114.906 108.942 112.975 110.383 111.691C116.075 106.576 118.07 101.383 116.869 94.8329 116.112 90.9026 113.068 88.9446 111.319 88.1259 109.492 87.2451 107.399 86.7986 105.127 86.7986L105.127 86.7986ZM262.538 87.4292 258.868 91.0018 249.202 100.395 247.097 102.439 249.837 103.498 260.203 107.499 263.387 108.725 262.73 105.379C261.874 101.058 261.651 96.733 262.052 92.5256L262.538 87.4292 262.538 87.4292ZM304.748 76.7463C300.739 76.7463 296.861 78.4706 294.104 81.4726 289.924 86.0377 289.111 92.7716 292.085 98.2257L292.872 99.704 294.14 102.067 295.924 100.07 297.071 98.7984 311.25 82.6098 312.365 81.3279 314.153 79.2728 311.602 78.3279 310.012 77.7408C308.343 77.0874 306.557 76.7463 304.748 76.7463L304.748 76.7463Z" fill="#FFCB05" transform="matrix(1.10712 0 0 1 327.353 19.5121)"/><path d="M315.168 97.2395C315.032 97.3594 314.906 97.5124 314.798 97.6696 314.941 97.5393 315.079 97.4256 315.226 97.3057L315.168 97.2395Z" fill="#7D7F68" transform="matrix(1.10712 0 0 1 339.83 22.9979)"/><path d="M239.243 98.2526 239.35 98.2981 239.243 98.2526Z" fill="#7D7F68" transform="matrix(1.10712 0 0 1 339.83 22.9979)"/><path d="M121.132 95.4056C119.273 85.4319 106.231 79.9344 93.3009 86.9867L96.6337 98.4015 101.877 115.27 104.269 122.953C113.97 116.716 123.72 109.221 121.132 95.4056ZM108.288 110.742C106.876 106.134 103.779 96.183 103.779 96.183 103.794 96.2285 103.169 94.0535 102.429 91.5642 105.171 91.0742 107.805 91.2727 109.971 92.3147 111.183 92.8915 113.312 94.2375 113.778 96.7888 114.849 102.524 112.915 106.618 108.288 110.742Z" fill="#3567B0" transform="matrix(1.10712 0 0 1 327.353 19.5121)"/><path d="M316.791 79.5809C309.563 72.9503 298.328 73.4651 291.735 80.687 285.103 87.8964 285.624 99.1375 292.862 105.741 293.451 106.31 294.088 106.775 294.729 107.232L318.044 80.8276C317.633 80.3975 317.219 79.9696 316.791 79.5809ZM294.776 98.1534C292.496 93.9667 292.957 88.6511 296.366 84.9254 299.645 81.3527 304.67 80.3355 308.953 81.9874L294.776 98.1534Z" fill="#3567B0" transform="matrix(1.10712 0 0 1 327.353 19.5121)"/><path d="M456.401 99.8508C456.597 100.634 456.698 101.41 456.673 102.235 456.458 107.168 451.821 110.976 446.292 110.718 440.768 110.527 436.428 106.335 436.645 101.414 436.832 96.8012 440.942 93.15 446.017 92.9164 445.054 92.6993 444.047 92.5855 442.997 92.5483 433.749 92.1493 426.19 98.6992 425.872 106.853 425.516 115.574 432.506 122.684 441.607 123.079 450.868 123.449 458.423 116.877 458.791 108.197 458.898 105.189 458.009 102.305 456.401 99.8508" fill="#3466AF" transform="matrix(1.10712 0 0 1 339.83 22.9979)"/><path d="M175.849 109.81C175.849 114.764 171.344 118.733 165.825 118.733 160.293 118.733 155.804 114.762 155.804 109.81 155.804 105.193 159.753 101.387 164.814 100.945 163.845 100.769 162.836 100.667 161.794 100.667 152.548 100.667 145.254 107.525 145.254 115.692 145.254 124.407 152.55 131.242 161.645 131.242 170.899 131.242 178.187 124.403 178.187 115.692 178.187 112.676 177.19 109.833 175.477 107.492 175.708 108.197 175.849 108.979 175.849 109.81" fill="#3567B0" transform="matrix(1.10712 0 0 1 339.83 22.9979)"/><path d="M525.191 63.2619 521.085 80.1846 517.293 61.4466 466.517 50.2696 466.873 78.5037 474.524 80.2197 473.972 85.312C473.873 85.2727 473.811 85.2128 473.757 85.1693 464.272 80.1639 452.512 79.6511 441.444 83.8317 437.731 85.2521 434.284 87.119 431.158 89.3892L423.498 41.034 389.729 41.034 388.799 46.5936 353.256 46.5936 349.198 71.4514 346.249 67.8105C337.636 57.2289 325.15 51.4006 311.319 51.1111L341.496 34.8914 320.453 3.48789 282.433 47.2965 288.996 55.2978C283.052 57.7272 277.858 61.0766 273.555 65.1227L240.957 36.2002 229.559 58.0456 229.997 37.052 179.031 53.3337 180.337 80.7159 189.008 78.4665 190.29 92.3436C180.383 87.8943 168.474 88.0039 157.429 92.6703 154.156 94.0969 151.105 95.8502 148.293 97.8887 150.203 89.4346 149.75 81.1005 146.529 73.6677 142.725 64.8849 136.03 57.6259 127.822 53.0463 122.068 49.2131 115.21 46.8252 108.034 46.0126 90.3981 42.9299 69.2205 46.0953 48.3779 54.9753 40.7156 58.2441 33.5682 61.9532 27.1217 66.0593L18.9736 71.226 23.8943 79.5354 39.165 105.344C39.165 105.344 43.8376 113.252 43.8686 113.248L52.1263 109.19 53.2779 108.66 91.2231 193.348 94.8826 201.488 103.355 198.759 123.886 192.182 132.884 189.323 130.51 180.164 119.606 138.307C122.742 135.985 125.67 133.522 128.372 130.944 127.762 135.946 128.083 141.009 129.46 145.855 132.311 156.003 138.956 164.018 148.177 168.459 158.136 173.246 170.287 173.258 181.528 168.49 187.166 166.098 192.18 162.608 196.429 158.455L197.977 175.125 233.931 169.83 233.876 137.591 309.003 174.722 309.003 138.77C312.017 138.518 315.094 138.042 318.187 137.283 326.461 135.284 333.542 132.542 339.834 128.773L336.679 148.082 377.186 154.456 379.408 139.88 389.988 159.424 396.455 146.963 398.818 167.424 444.744 175.52 442.308 160.069C448.596 160.781 455.222 159.937 461.623 157.522 463.139 156.962 464.635 156.28 466.068 155.548L464.239 171.987 494.805 176.299 495.032 188.835 526.905 198.839 568.402 73.7649 525.191 63.2619ZM345.745 81.8489 347.852 79.6098 345.307 95.3788 338.668 89.3995 345.745 81.8489ZM318.83 17.4333 329.957 32.5489 298.144 48.32 295.947 44.9809 318.83 17.4333ZM108.173 133.994 120.865 182.694 100.322 189.257 58.1676 95.1141C55.8747 96.3195 51.6404 98.3415 47.7514 100.248L32.4869 74.4617C38.5572 70.5851 45.2146 67.1489 52.2958 64.1572 72.1688 55.7051 91.13 53.1828 106.295 55.8623 111.66 56.466 117.34 58.0476 122.314 61.3495 129.139 65.193 134.36 70.6636 137.37 77.6312 144.712 94.5972 132.447 119.013 108.173 133.994ZM202.619 125.327C202.383 132.578 199.72 139.843 195.263 145.99 191.022 151.934 185.099 156.84 178.129 159.84 160.307 167.39 142.485 159.84 137.724 142.919 133.111 126.559 143.843 107.083 161.111 99.644 172.14 94.988 183.205 96.092 191.132 101.478 196.028 104.798 199.762 109.791 201.504 116.048 201.724 116.711 201.868 117.408 202.015 118.09 202.513 120.474 202.714 122.918 202.619 125.327ZM299.588 159.757 225.043 122.474 225.176 161.537 205.892 164.167 204.548 148.065C210.502 137.856 212.679 125.825 209.572 114.793 207.866 108.729 204.715 103.465 200.434 99.2471L197.667 66.417 189.008 68.6623 188.626 60.3612 219.593 51.1401 221.491 83.0791 244.304 51.0263 266.607 72.266 235.418 105.123 264.719 116.713C267.992 122.916 272.985 128.186 279.249 132.069 285.305 135.807 292.244 138.017 299.583 138.743L299.588 159.757 299.588 159.757ZM260.882 105.741 250.513 101.741 260.179 92.3457C259.765 96.6585 259.978 101.168 260.882 105.741ZM342.005 115.508C334.851 121.425 326.697 125.283 315.923 127.886 313.568 128.426 311.261 128.819 309.003 129.017 291.903 130.698 277.556 122.846 272.112 110.11 271.434 108.567 270.911 107.006 270.516 105.34 267.998 94.6138 270.148 85.0267 275.447 77.5154 276.973 75.3238 278.784 73.3266 280.819 71.5279 285.81 67.0744 292.182 63.8367 299.426 62.0958 315.716 58.1676 330.063 63.1399 338.858 73.9324L307.816 106.973C309.921 107.37 313.268 106.818 315.739 106.227 323.132 104.424 327.27 100.5 330.915 96.2244L343.32 107.385 347.078 110.78C345.449 112.465 343.737 114.055 342.005 115.508ZM407.861 159.602 401.109 114.871 391.559 139.547 377.26 108.706 377.099 108.706 371.448 144.422 347.616 140.275 350.967 120.344C351.867 119.498 352.752 118.651 353.622 117.756L361.346 109.802 353.839 103.078 361.816 55.6142 385.861 55.6142 391.88 88.4712 398.624 50.3937 415.823 50.3937 422.961 96.7847C413.878 107.131 409.466 121.039 412.501 133.762 414.848 143.626 420.91 151.57 429.599 156.209 430.474 156.65 431.379 157.086 432.314 157.462L433.224 163.477 407.861 159.602ZM467.251 145.028C464.623 146.899 461.731 148.489 458.621 149.637 452.483 151.975 446.377 152.461 440.938 151.38 437.146 150.631 433.689 149.153 430.681 147.013 425.896 143.552 422.373 138.441 420.821 132.023 419.009 124.314 420.678 116.081 424.825 108.869 426.893 105.344 429.546 102.032 432.684 99.1768 436.184 96.0383 440.243 93.4684 444.758 91.7317 455.268 87.8116 465.632 89.1638 472.928 94.4091 475.612 96.3112 477.839 98.7323 479.594 101.546 480.925 103.769 481.959 106.219 482.586 108.894 484.821 118.152 482.16 128.068 476.319 136.057 473.817 139.462 470.768 142.522 467.251 145.028ZM520.913 187.189 503.29 181.94 501.754 116.966 492.89 167.089 473.664 164.02 475.041 149.589C487.595 138.981 494.251 122.246 490.604 107.081 489.001 100.366 485.548 94.5187 480.682 90.0735L482.305 73.0537 475.035 71.1185 475.521 62.0317 508.645 68.6892 519.782 121.506 531.205 74.1536 556.404 79.7214 520.913 187.189Z" fill="#3567B0" transform="matrix(1.10712 0 0 1 327.353 19.5121)"/><path d="M493.54 176.565 493.54 171.66 491.708 171.66 491.708 171.004 496.116 171.004 496.116 171.66 494.276 171.66 494.276 176.565Z" transform="matrix(1.10712 0 0 1 373.692 36.2937)"/><path d="M496.852 176.565 496.852 171.004 497.959 171.004 499.276 174.942C499.397 175.308 499.486 175.583 499.541 175.765 499.604 175.562 499.703 175.265 499.837 174.873L501.169 171.004 502.159 171.004 502.159 176.565 501.449 176.565 501.449 171.91 499.833 176.565 499.17 176.565 497.561 171.831 497.561 176.565Z" transform="matrix(1.10712 0 0 1 373.692 36.2937)"/></g></svg>