<?xml version="1.0" encoding="UTF-8"?>
<!DOCTYPE svg PUBLIC "-//W3C//DTD SVG 1.1//EN" "http://www.w3.org/Graphics/SVG/1.1/DTD/svg11.dtd">
<svg xmlns="http://www.w3.org/2000/svg" version="1.1" width="609px" height="198px" style="shape-rendering:geometricPrecision; text-rendering:geometricPrecision; image-rendering:optimizeQuality; fill-rule:evenodd; clip-rule:evenodd" xmlns:xlink="http://www.w3.org/1999/xlink">
<g><path style="opacity:0.144" fill="#0a0a0c" d="M 498.5,46.5 C 499.321,49.6414 499.821,52.9748 500,56.5C 500.333,77.8333 500.667,99.1667 501,120.5C 504.469,124.109 506.302,128.442 506.5,133.5C 505.067,136.67 505.233,139.67 507,142.5C 508.158,142.002 508.991,141.169 509.5,140C 508.459,130.738 511.792,123.738 519.5,119C 525.157,117.282 529.657,118.782 533,123.5C 534.732,128.35 535.732,133.35 536,138.5C 536.414,138.957 536.914,139.291 537.5,139.5C 541.98,137.862 546.647,137.029 551.5,137C 557.999,130.418 564.666,130.085 571.5,136C 587.326,135.798 592.826,143.298 588,158.5C 584.405,162.132 580.071,164.132 575,164.5C 574.573,170.527 573.907,176.527 573,182.5C 572.31,185.196 570.81,187.363 568.5,189C 559.249,189.959 550.082,191.459 541,193.5C 535.129,192.433 529.295,192.433 523.5,193.5C 518.553,192.717 513.553,192.217 508.5,192C 505.511,191.67 502.678,190.836 500,189.5C 496.418,190.805 492.918,192.305 489.5,194C 484.319,194.56 479.152,194.393 474,193.5C 465.209,196.801 457.209,195.468 450,189.5C 440.673,195.369 430.839,196.536 420.5,193C 417.773,190.044 416.273,186.544 416,182.5C 415.311,181.643 414.478,180.977 413.5,180.5C 411.021,194.155 403.521,198.155 391,192.5C 385.736,195.279 380.569,195.113 375.5,192C 368.049,191.965 360.716,191.132 353.5,189.5C 346.463,192.868 339.297,193.202 332,190.5C 321.586,195.006 311.586,194.34 302,188.5C 296.635,195.134 290.135,196.634 282.5,193C 280.959,191.421 279.792,189.587 279,187.5C 278.501,181.509 278.334,175.509 278.5,169.5C 276.173,169.665 274.007,170.331 272,171.5C 273.768,182.017 269.434,187.35 259,187.5C 256.144,187.129 253.311,186.629 250.5,186C 239.758,180.547 229.258,174.714 219,168.5C 217.756,171.638 217.089,174.972 217,178.5C 216.535,179.931 215.701,181.097 214.5,182C 200.167,184 185.833,184 171.5,182C 170.299,181.097 169.465,179.931 169,178.5C 168.929,174.313 168.262,170.313 167,166.5C 150.357,172.574 134.19,171.574 118.5,163.5C 114.084,167.041 109.084,169.541 103.5,171C 97.6267,171.951 91.96,171.285 86.5,169C 79.6753,149.861 72.8419,130.694 66,111.5C 65.5348,110.069 64.7014,108.903 63.5,108C 60.4522,107.394 57.9522,105.894 56,103.5C 51.6543,93.4889 48.4876,83.1556 46.5,72.5C 47,67.5 47.5,62.5 48,57.5C 70.4433,47.3456 93.9433,43.5122 118.5,46C 134.94,50.6058 143.273,61.4391 143.5,78.5C 148.167,78.5 152.833,78.5 157.5,78.5C 158.015,70.744 159.181,63.0774 161,55.5C 162.167,54.3333 163.333,53.1667 164.5,52C 172.5,48.6667 180.5,45.3333 188.5,42C 194.167,41.3333 199.833,41.3333 205.5,42C 209.985,43.2742 214.652,43.9409 219.5,44C 226.576,48.4058 233.076,53.5724 239,59.5C 247.086,54.8731 255.253,50.3731 263.5,46C 269.552,45.2097 275.552,45.3764 281.5,46.5C 284.747,50.6591 287.747,54.9924 290.5,59.5C 302.486,60.6659 314.486,60.8326 326.5,60C 327.257,58.4878 328.257,57.1545 329.5,56C 340.5,55.3333 351.5,55.3333 362.5,56C 364.235,58.1922 365.402,60.6922 366,63.5C 367.629,71.3318 369.629,78.9985 372,86.5C 381.13,80.2208 391.296,77.3875 402.5,78C 400.926,76.1741 400.093,74.0075 400,71.5C 399.039,62.7212 399.539,54.0545 401.5,45.5C 403.05,43.5721 404.717,41.7387 406.5,40C 421.833,39.3333 437.167,39.3333 452.5,40C 454.303,40.6368 455.636,41.8035 456.5,43.5C 469.821,44.3327 483.154,44.8327 496.5,45C 497.416,45.2784 498.082,45.7784 498.5,46.5 Z"/></g>
<g><path style="opacity:1" fill="#fcdd33" d="M 490.5,119.5 C 488.499,123.651 485.166,125.485 480.5,125C 477.043,127.282 475.043,130.448 474.5,134.5C 472.076,135.423 470.076,136.923 468.5,139C 466.565,138.942 464.898,138.109 463.5,136.5C 461.974,134.87 459.974,134.037 457.5,134C 456.601,132.348 455.601,130.848 454.5,129.5C 453.978,126.432 453.145,123.432 452,120.5C 451.503,122.81 451.337,125.143 451.5,127.5C 450.609,126.89 449.609,126.557 448.5,126.5C 446.866,125.839 445.033,125.506 443,125.5C 437.5,126 432,126.5 426.5,127C 423.437,129.03 421.771,131.864 421.5,135.5C 417.82,140.179 413.486,144.179 408.5,147.5C 407.833,145.167 407.167,142.833 406.5,140.5C 405.811,137.811 404.144,136.144 401.5,135.5C 401.389,134.883 401.056,134.383 400.5,134C 395.468,132.588 391.135,133.588 387.5,137C 386.552,137.483 385.552,137.649 384.5,137.5C 382.031,136.683 379.365,136.183 376.5,136C 375.529,134.519 374.196,133.685 372.5,133.5C 367.982,131.617 363.982,132.45 360.5,136C 356.644,136.177 352.977,136.677 349.5,137.5C 346.525,138.655 343.858,140.322 341.5,142.5C 340.657,136.458 339.491,130.458 338,124.5C 336,127.833 334,131.167 332,134.5C 329.083,130.334 326.416,126.001 324,121.5C 322.711,127.088 322.211,132.755 322.5,138.5C 318.33,138.333 314.33,139 310.5,140.5C 311.611,135.475 309.944,131.808 305.5,129.5C 304.833,129.5 304.167,129.5 303.5,129.5C 298.592,128.031 293.926,128.698 289.5,131.5C 283.906,132.232 278.573,133.565 273.5,135.5C 271.629,135.859 270.129,136.859 269,138.5C 268.195,141.696 268.362,144.696 269.5,147.5C 269.5,147.833 269.5,148.167 269.5,148.5C 270.5,149.833 271.5,151.167 272.5,152.5C 268.202,153.2 263.869,153.533 259.5,153.5C 259.828,158.875 259.495,164.208 258.5,169.5C 241.167,159.833 223.833,150.167 206.5,140.5C 205.502,149.141 205.169,157.808 205.5,166.5C 196.5,166.5 187.5,166.5 178.5,166.5C 178.667,153.163 178.5,139.829 178,126.5C 170.136,147.348 155.302,155.515 133.5,151C 123.056,144.727 118.056,135.394 118.5,123C 119.882,106.926 128.215,95.9265 143.5,90C 155.646,86.8278 166.146,89.6611 175,98.5C 176,100.5 177,102.5 178,104.5C 178.5,94.5056 178.666,84.5056 178.5,74.5C 175.421,74.2601 172.421,74.5934 169.5,75.5C 168.738,71.1093 169.238,66.776 171,62.5C 179.427,58.7044 187.927,55.0377 196.5,51.5C 197.33,57.1376 197.83,62.8042 198,68.5C 202.382,63.0735 207.216,58.0735 212.5,53.5C 218.647,58.4797 224.647,63.6463 230.5,69C 221.71,81.4128 213.043,93.9128 204.5,106.5C 214.5,114.167 224.5,121.833 234.5,129.5C 238.183,100.327 254.516,88.1604 283.5,93C 287.805,93.9032 291.639,95.7365 295,98.5C 296.821,89.2518 297.655,79.9184 297.5,70.5C 306.506,70.3336 315.506,70.5002 324.5,71C 326.674,74.0036 329.008,76.8369 331.5,79.5C 333.692,74.9252 335.692,70.2585 337.5,65.5C 343.137,64.3368 348.804,64.1701 354.5,65C 357.956,81.8969 361.79,98.7302 366,115.5C 372.648,97.5984 385.481,88.7651 404.5,89C 413.392,90.185 419.892,94.685 424,102.5C 424.5,89.8377 424.667,77.1711 424.5,64.5C 420.833,63.8333 417.167,63.1667 413.5,62.5C 413.5,58.1667 413.5,53.8333 413.5,49.5C 424.52,49.1679 435.52,49.5012 446.5,50.5C 450.765,61.4611 454.932,72.4611 459,83.5C 458.587,73.8503 458.087,64.1836 457.5,54.5C 468.5,54.5 479.5,54.5 490.5,54.5C 490.5,76.1667 490.5,97.8333 490.5,119.5 Z"/></g>
<g><path style="opacity:1" fill="#13243f" d="M 496.5,46.5 C 497.167,46.5 497.833,46.5 498.5,46.5C 498.831,71.0057 498.498,95.3391 497.5,119.5C 497.823,95.092 497.49,70.7587 496.5,46.5 Z"/></g>
<g><path style="opacity:1" fill="#3a69b5" d="M 496.5,46.5 C 497.49,70.7587 497.823,95.092 497.5,119.5C 495.167,119.5 492.833,119.5 490.5,119.5C 490.5,97.8333 490.5,76.1667 490.5,54.5C 479.5,54.5 468.5,54.5 457.5,54.5C 458.087,64.1836 458.587,73.8503 459,83.5C 454.932,72.4611 450.765,61.4611 446.5,50.5C 435.52,49.5012 424.52,49.1679 413.5,49.5C 413.5,53.8333 413.5,58.1667 413.5,62.5C 417.167,63.1667 420.833,63.8333 424.5,64.5C 424.667,77.1711 424.5,89.8377 424,102.5C 419.892,94.685 413.392,90.185 404.5,89C 385.481,88.7651 372.648,97.5984 366,115.5C 361.79,98.7302 357.956,81.8969 354.5,65C 348.804,64.1701 343.137,64.3368 337.5,65.5C 335.692,70.2585 333.692,74.9252 331.5,79.5C 329.008,76.8369 326.674,74.0036 324.5,71C 315.506,70.5002 306.506,70.3336 297.5,70.5C 297.655,79.9184 296.821,89.2518 295,98.5C 291.639,95.7365 287.805,93.9032 283.5,93C 254.516,88.1604 238.183,100.327 234.5,129.5C 224.5,121.833 214.5,114.167 204.5,106.5C 213.043,93.9128 221.71,81.4128 230.5,69C 224.647,63.6463 218.647,58.4797 212.5,53.5C 207.216,58.0735 202.382,63.0735 198,68.5C 197.83,62.8042 197.33,57.1376 196.5,51.5C 187.927,55.0377 179.427,58.7044 171,62.5C 169.238,66.776 168.738,71.1093 169.5,75.5C 172.421,74.5934 175.421,74.2601 178.5,74.5C 178.666,84.5056 178.5,94.5056 178,104.5C 177,102.5 176,100.5 175,98.5C 166.146,89.6611 155.646,86.8278 143.5,90C 128.215,95.9265 119.882,106.926 118.5,123C 118.056,135.394 123.056,144.727 133.5,151C 155.302,155.515 170.136,147.348 178,126.5C 178.5,139.829 178.667,153.163 178.5,166.5C 187.5,166.5 196.5,166.5 205.5,166.5C 205.169,157.808 205.502,149.141 206.5,140.5C 223.833,150.167 241.167,159.833 258.5,169.5C 259.495,164.208 259.828,158.875 259.5,153.5C 263.869,153.533 268.202,153.2 272.5,152.5C 277.624,152.866 279.957,155.532 279.5,160.5C 275.534,161.162 271.534,161.495 267.5,161.5C 267.805,166.762 267.471,171.928 266.5,177C 257.746,178.801 249.746,177.301 242.5,172.5C 234.125,167.312 225.458,162.645 216.5,158.5C 215.828,157.733 214.995,157.066 214,156.5C 213.81,162.416 213.31,168.249 212.5,174C 198.833,174.667 185.167,174.667 171.5,174C 170.851,167.555 170.184,161.055 169.5,154.5C 164.69,157.881 159.357,159.881 153.5,160.5C 145.493,160.666 137.493,160.5 129.5,160C 124.782,158.105 120.782,155.272 117.5,151.5C 112.764,155.186 108.097,158.853 103.5,162.5C 98.1667,162.5 92.8333,162.5 87.5,162.5C 80.824,141.305 73.6573,120.305 66,99.5C 63.8665,97.8624 61.3665,97.029 58.5,97C 55.2918,90.0537 52.4585,82.887 50,75.5C 49.3333,69.8333 49.3333,64.1667 50,58.5C 61.4435,53.7978 73.2768,50.2978 85.5,48C 96.1667,47.3333 106.833,47.3333 117.5,48C 134.889,52.6161 141.222,63.7828 136.5,81.5C 144.466,80.6351 152.466,80.3018 160.5,80.5C 159.989,72.012 160.822,63.6786 163,55.5C 171.348,51.2413 179.848,47.408 188.5,44C 193.833,43.3333 199.167,43.3333 204.5,44C 209.321,45.2789 214.321,45.9455 219.5,46C 226.011,51.1805 232.511,56.3472 239,61.5C 247.07,56.8803 255.237,52.3803 263.5,48C 268.833,47.3333 274.167,47.3333 279.5,48C 283.57,52.1384 286.903,56.8051 289.5,62C 302.496,62.4999 315.496,62.6666 328.5,62.5C 328.421,61.0695 328.754,59.7362 329.5,58.5C 340.5,57.1667 351.5,57.1667 362.5,58.5C 364.697,69.2523 367.197,79.919 370,90.5C 374.233,87.2713 378.733,84.438 383.5,82C 394.214,81.1902 404.88,81.3569 415.5,82.5C 416.489,78.8927 416.823,75.226 416.5,71.5C 412.612,71.6548 409.112,70.6548 406,68.5C 405.184,59.5883 405.35,50.755 406.5,42C 421.833,41.3333 437.167,41.3333 452.5,42C 453.687,43.0195 454.687,44.1861 455.5,45.5C 469.15,46.4992 482.817,46.8325 496.5,46.5 Z"/></g>
<g><path style="opacity:1" fill="#fbdc36" d="M 270.5,55.5 C 271.675,55.281 272.675,55.6143 273.5,56.5C 277.416,61.9964 281.082,67.6631 284.5,73.5C 273.308,75.7567 262.141,78.09 251,80.5C 249.009,77.8642 247.009,75.1975 245,72.5C 244.251,71.365 244.417,70.365 245.5,69.5C 254.057,65.0591 262.391,60.3925 270.5,55.5 Z"/></g>
<g><path style="opacity:1" fill="#fcdd34" d="M 92.5,55.5 C 101.347,54.8739 110.014,55.7072 118.5,58C 130.611,66.3225 131.778,76.1558 122,87.5C 115.738,95.7657 108.738,103.432 101,110.5C 102.983,121.801 105.817,132.968 109.5,144C 105.306,147.857 100.806,151.357 96,154.5C 87.4193,132.428 79.4193,110.095 72,87.5C 71.6924,86.6919 71.1924,86.0253 70.5,85.5C 69.0095,87.1256 67.5095,88.7923 66,90.5C 62.9313,82.4603 59.7646,74.4603 56.5,66.5C 68.3509,61.9914 80.3509,58.3247 92.5,55.5 Z"/></g>
<g><path style="opacity:1" fill="#436eb5" d="M 97.5,77.5 C 100.85,77.335 104.183,77.5017 107.5,78C 108.022,78.5613 108.355,79.228 108.5,80C 105.116,86.0566 100.949,91.5566 96,96.5C 94.1148,91.7946 92.6148,86.9612 91.5,82C 92.9726,79.767 94.9726,78.267 97.5,77.5 Z"/></g>
<g><path style="opacity:0.209" fill="#141518" d="M 235.5,79.5 C 237.017,79.5106 238.184,80.1772 239,81.5C 240.143,85.3342 242.643,87.5009 246.5,88C 236.923,93.079 230.923,100.912 228.5,111.5C 226.032,110.197 223.699,108.697 221.5,107C 220.426,106.261 219.759,105.261 219.5,104C 224.713,95.7362 230.047,87.5695 235.5,79.5 Z"/></g>
<g><path style="opacity:1" fill="#446eb5" d="M 153.5,98.5 C 154.873,98.3433 156.207,98.51 157.5,99C 152.257,102.371 151.257,106.704 154.5,112C 160.616,111.906 164.449,108.739 166,102.5C 167.428,110.217 165.261,116.717 159.5,122C 152.561,124.901 146.728,123.401 142,117.5C 140.925,113.142 141.592,109.142 144,105.5C 146.79,102.535 149.957,100.202 153.5,98.5 Z"/></g>
<g><path style="opacity:1" fill="#446eb5" d="M 400.5,98.5 C 401.873,98.3433 403.207,98.51 404.5,99C 399.257,102.371 398.257,106.704 401.5,112C 407.616,111.906 411.449,108.739 413,102.5C 414.428,110.217 412.261,116.717 406.5,122C 399.561,124.901 393.728,123.401 389,117.5C 387.925,113.142 388.592,109.142 391,105.5C 393.79,102.535 396.957,100.202 400.5,98.5 Z"/></g>
<g><path style="opacity:1" fill="#466fb4" d="M 294.5,101.5 C 295.097,101.735 295.43,102.235 295.5,103C 294.382,111.477 293.382,119.977 292.5,128.5C 290.517,126.016 288.35,123.683 286,121.5C 282.178,129.315 276.011,133.482 267.5,134C 277.089,123.585 286.089,112.752 294.5,101.5 Z"/></g>
<g><path style="opacity:1" fill="#446eb5" d="M 262.5,107.5 C 265.607,107.351 268.607,107.851 271.5,109C 266.356,115.645 261.022,122.145 255.5,128.5C 251.357,119.156 253.691,112.156 262.5,107.5 Z"/></g>
<g><path style="opacity:1" fill="#3762b1" d="M 570.5,179.5 C 566.305,183.084 561.805,183.418 557,180.5C 548.745,185.945 539.912,186.945 530.5,183.5C 526.324,186.121 522.158,186.121 518,183.5C 511.715,185.511 506.048,184.511 501,180.5C 495.325,182.526 489.825,184.86 484.5,187.5C 480.5,186.089 476.333,185.089 472,184.5C 463.249,188.753 456.416,186.753 451.5,178.5C 443.928,185.857 434.928,188.691 424.5,187C 421.833,185 420.5,182.333 420.5,179C 421.127,163.124 422.293,147.291 424,131.5C 425.167,130.333 426.333,129.167 427.5,128C 434.485,127.229 441.485,126.729 448.5,126.5C 451.498,128.503 453.831,131.17 455.5,134.5C 458.13,135.381 460.797,136.048 463.5,136.5C 465.202,142.599 466.035,148.933 466,155.5C 467.368,150.601 468.368,145.601 469,140.5C 470.715,137.603 473.215,136.269 476.5,136.5C 476.547,129.285 480.214,125.451 487.5,125C 492.178,119.234 497.011,119.067 502,124.5C 501.566,132.511 501.733,140.511 502.5,148.5C 505.615,144.61 509.615,142.277 514.5,141.5C 514.969,135.838 515.469,130.171 516,124.5C 521.64,118.953 526.973,119.286 532,125.5C 532.333,132.167 532.667,138.833 533,145.5C 534.938,142.894 537.438,141.061 540.5,140C 545.167,139.667 549.833,139.333 554.5,139C 556.36,135.956 559.026,134.456 562.5,134.5C 569.528,137.348 576.861,139.515 584.5,141C 588.89,146.272 588.223,150.939 582.5,155C 578.911,155.207 575.411,155.707 572,156.5C 571.768,164.214 571.268,171.881 570.5,179.5 Z"/></g>
<g><path style="opacity:1" fill="#426cb2" d="M 341.5,142.5 C 340.751,144.246 339.417,145.246 337.5,145.5C 335.003,143.174 332.336,141.007 329.5,139C 327.19,138.503 324.857,138.337 322.5,138.5C 322.211,132.755 322.711,127.088 324,121.5C 326.416,126.001 329.083,130.334 332,134.5C 334,131.167 336,127.833 338,124.5C 339.491,130.458 340.657,136.458 341.5,142.5 Z"/></g>
<g><path style="opacity:1" fill="#4e71ae" d="M 454.5,129.5 C 453.5,128.833 452.5,128.167 451.5,127.5C 451.337,125.143 451.503,122.81 452,120.5C 453.145,123.432 453.978,126.432 454.5,129.5 Z"/></g>
<g><path style="opacity:1" fill="#fdfdfe" d="M 493.5,125.5 C 496.243,125.077 497.576,126.244 497.5,129C 496.703,145.146 496.203,161.312 496,177.5C 493.978,178.991 492.312,178.658 491,176.5C 490.544,160.156 490.877,143.823 492,127.5C 492.717,126.956 493.217,126.289 493.5,125.5 Z"/></g>
<g><path style="opacity:1" fill="#f9fbfd" d="M 521.5,125.5 C 523.722,125.178 525.556,125.845 527,127.5C 527.248,144.865 527.248,162.198 527,179.5C 523.024,181.382 520.858,180.048 520.5,175.5C 512.511,181.75 506.011,180.417 501,171.5C 498.693,159.946 502.86,151.779 513.5,147C 515.473,146.505 517.473,146.338 519.5,146.5C 519.577,139.396 520.244,132.396 521.5,125.5 Z"/></g>
<g><path style="opacity:1" fill="#1e273e" d="M 448.5,126.5 C 449.609,126.557 450.609,126.89 451.5,127.5C 452.5,128.167 453.5,128.833 454.5,129.5C 455.601,130.848 456.601,132.348 457.5,134C 459.974,134.037 461.974,134.87 463.5,136.5C 460.797,136.048 458.13,135.381 455.5,134.5C 453.831,131.17 451.498,128.503 448.5,126.5 Z"/></g>
<g><path style="opacity:1" fill="#1d2335" d="M 303.5,129.5 C 298.729,129.538 294.062,130.204 289.5,131.5C 293.926,128.698 298.592,128.031 303.5,129.5 Z"/></g>
<g><path style="opacity:1" fill="#345ead" d="M 303.5,129.5 C 304.167,129.5 304.833,129.5 305.5,129.5C 311.268,139.627 308.268,145.294 296.5,146.5C 296.667,158.505 296.5,170.505 296,182.5C 295.338,183.984 294.504,185.317 293.5,186.5C 288.212,188.561 284.045,187.228 281,182.5C 280.5,172.172 280.334,161.839 280.5,151.5C 278.143,151.663 275.81,151.497 273.5,151C 272.529,149.519 271.196,148.685 269.5,148.5C 269.5,148.167 269.5,147.833 269.5,147.5C 268.589,142.633 269.922,138.633 273.5,135.5C 278.573,133.565 283.906,132.232 289.5,131.5C 294.062,130.204 298.729,129.538 303.5,129.5 Z"/></g>
<g><path style="opacity:1" fill="#f5f8fd" d="M 482.5,130.5 C 488.555,129.942 489.888,132.109 486.5,137C 481.791,137.082 480.458,134.915 482.5,130.5 Z"/></g>
<g><path style="opacity:1" fill="#fafbfd" d="M 439.5,131.5 C 447.665,130.175 451.498,133.509 451,141.5C 449.753,144.329 448.253,146.995 446.5,149.5C 453.618,154.52 455.451,161.186 452,169.5C 446.139,178.847 437.639,183.013 426.5,182C 425.134,179.618 425.467,177.452 427.5,175.5C 426.862,171.218 426.529,166.884 426.5,162.5C 427.706,152.921 428.54,143.255 429,133.5C 431.382,132.134 433.548,132.467 435.5,134.5C 436.901,133.479 438.235,132.479 439.5,131.5 Z"/></g>
<g><path style="opacity:1" fill="#393324" d="M 372.5,133.5 C 368.089,132.66 364.423,133.827 361.5,137C 357.514,137.499 353.514,137.666 349.5,137.5C 352.977,136.677 356.644,136.177 360.5,136C 363.982,132.45 367.982,131.617 372.5,133.5 Z"/></g>
<g><path style="opacity:1" fill="#3660b1" d="M 372.5,133.5 C 373.29,134.794 374.29,135.961 375.5,137C 378.482,137.498 381.482,137.665 384.5,137.5C 386.795,138.928 388.795,138.428 390.5,136C 394.152,135.501 397.818,135.335 401.5,135.5C 404.144,136.144 405.811,137.811 406.5,140.5C 407.509,154.486 407.676,168.486 407,182.5C 401.084,189.394 395.584,189.061 390.5,181.5C 385.087,188.089 379.754,188.089 374.5,181.5C 371.437,183.078 368.104,183.744 364.5,183.5C 360.865,183.747 357.532,183.08 354.5,181.5C 354.53,180.503 354.03,179.836 353,179.5C 350.262,181.12 347.428,182.62 344.5,184C 339.682,185.157 335.349,184.324 331.5,181.5C 324.624,185.257 317.29,186.423 309.5,185C 299.328,179.482 295.495,170.982 298,159.5C 301.884,150.282 308.384,143.782 317.5,140C 326.835,137.334 333.169,140.501 336.5,149.5C 340.88,145.45 345.213,141.45 349.5,137.5C 353.514,137.666 357.514,137.499 361.5,137C 364.423,133.827 368.089,132.66 372.5,133.5 Z"/></g>
<g><path style="opacity:1" fill="#181d2c" d="M 372.5,133.5 C 374.196,133.685 375.529,134.519 376.5,136C 379.365,136.183 382.031,136.683 384.5,137.5C 381.482,137.665 378.482,137.498 375.5,137C 374.29,135.961 373.29,134.794 372.5,133.5 Z"/></g>
<g><path style="opacity:1" fill="#f9fbfd" d="M 296.5,134.5 C 298.527,134.338 300.527,134.505 302.5,135C 303.554,136.388 303.72,137.888 303,139.5C 299.364,141.233 295.531,142.233 291.5,142.5C 291.667,155.504 291.5,168.504 291,181.5C 289.333,182.833 287.667,182.833 286,181.5C 285.667,169.167 285.333,156.833 285,144.5C 281.994,146.035 278.827,146.535 275.5,146C 274.065,143.733 274.398,141.733 276.5,140C 283.372,138.452 290.039,136.618 296.5,134.5 Z"/></g>
<g><path style="opacity:1" fill="#202330" d="M 273.5,135.5 C 269.922,138.633 268.589,142.633 269.5,147.5C 268.362,144.696 268.195,141.696 269,138.5C 270.129,136.859 271.629,135.859 273.5,135.5 Z"/></g>
<g><path style="opacity:1" fill="#343239" d="M 401.5,135.5 C 397.818,135.335 394.152,135.501 390.5,136C 388.795,138.428 386.795,138.928 384.5,137.5C 385.552,137.649 386.552,137.483 387.5,137C 391.135,133.588 395.468,132.588 400.5,134C 401.056,134.383 401.389,134.883 401.5,135.5 Z"/></g>
<g><path style="opacity:1" fill="#fcfdfe" d="M 395.5,178.5 C 396.659,168.008 396.825,157.341 396,146.5C 395.283,147.044 394.783,147.711 394.5,148.5C 389.252,158.744 385.919,169.577 384.5,181C 382.888,181.72 381.388,181.554 380,180.5C 379.667,170.167 379.333,159.833 379,149.5C 374.468,158.292 371.802,167.626 371,177.5C 369.062,178.86 367.396,178.527 366,176.5C 365.333,164.167 365.333,151.833 366,139.5C 367.667,138.167 369.333,138.167 371,139.5C 371.333,143.167 371.667,146.833 372,150.5C 373.829,144.637 377.662,142.137 383.5,143C 385.487,144.319 386.654,146.152 387,148.5C 388.989,142.806 392.822,139.973 398.5,140C 400.487,141.319 401.654,143.152 402,145.5C 402.833,157.514 402.666,169.514 401.5,181.5C 398.184,183.171 396.184,182.171 395.5,178.5 Z"/></g>
<g><path style="opacity:1" fill="#3e68b8" d="M 441.5,137.5 C 442.5,137.5 443.5,137.5 444.5,137.5C 444.628,139.655 444.128,141.655 443,143.5C 440,146.5 437,149.5 434,152.5C 433.348,149.406 433.682,146.406 435,143.5C 437.063,141.266 439.229,139.266 441.5,137.5 Z"/></g>
<g><path style="opacity:1" fill="#f9fafd" d="M 561.5,138.5 C 565.113,138.78 567.113,140.78 567.5,144.5C 571.442,143.4 575.442,143.233 579.5,144C 582.473,145.224 583.14,147.224 581.5,150C 578.464,150.638 575.464,150.472 572.5,149.5C 569.542,150.38 567.709,152.38 567,155.5C 566.667,162.5 566.333,169.5 566,176.5C 564.604,178.527 562.938,178.86 561,177.5C 559.464,165.209 559.13,152.876 560,140.5C 560.717,139.956 561.217,139.289 561.5,138.5 Z"/></g>
<g><path style="opacity:1" fill="#f8fafd" d="M 456.5,139.5 C 457.822,139.33 458.989,139.663 460,140.5C 460.333,149.167 460.667,157.833 461,166.5C 461.056,169.78 461.889,172.78 463.5,175.5C 466.368,172.425 468.201,168.759 469,164.5C 471.523,157.366 473.189,150.033 474,142.5C 475.667,141.167 477.333,141.167 479,142.5C 479.821,155.076 479.655,167.576 478.5,180C 476.633,180.711 475.133,180.211 474,178.5C 473.667,176.5 473.333,174.5 473,172.5C 471.698,176.274 469.531,179.441 466.5,182C 463.15,182.93 460.317,182.097 458,179.5C 456.692,176.27 455.692,172.936 455,169.5C 454.333,160.167 454.333,150.833 455,141.5C 455.717,140.956 456.217,140.289 456.5,139.5 Z"/></g>
<g><path style="opacity:1" fill="#f7f9fd" d="M 352.5,142.5 C 356.319,142.605 359.986,143.438 363.5,145C 364.022,145.561 364.355,146.228 364.5,147C 363.873,149.135 363.373,151.302 363,153.5C 362.806,161.755 362.64,169.921 362.5,178C 360.888,178.72 359.388,178.554 358,177.5C 357.461,174.471 356.794,171.471 356,168.5C 352.073,173.929 346.906,177.596 340.5,179.5C 336.029,179.199 333.196,176.866 332,172.5C 326.828,179.337 319.995,181.837 311.5,180C 303.804,175.811 300.971,169.311 303,160.5C 306.112,153.721 310.945,148.555 317.5,145C 328.499,142.665 332.666,146.832 330,157.5C 324.794,164.118 318.128,166.785 310,165.5C 308.887,171.064 311.22,174.064 317,174.5C 321.917,173.627 325.75,171.127 328.5,167C 329.938,166.781 331.271,166.281 332.5,165.5C 337.111,155.874 343.778,148.208 352.5,142.5 Z"/></g>
<g><path style="opacity:1" fill="#fcfdfe" d="M 482.5,141.5 C 484.144,141.286 485.644,141.62 487,142.5C 487.667,155.5 487.667,168.5 487,181.5C 484.978,182.991 483.312,182.658 482,180.5C 481.187,167.425 481.354,154.425 482.5,141.5 Z"/></g>
<g><path style="opacity:1" fill="#f7f8fd" d="M 542.5,144.5 C 552.1,142.283 556.6,145.95 556,155.5C 551.189,163.649 544.189,166.983 535,165.5C 533.887,171.064 536.22,174.064 542,174.5C 546.917,173.627 550.75,171.127 553.5,167C 556.237,165.92 557.904,166.754 558.5,169.5C 551.998,180.833 542.998,183.333 531.5,177C 526.276,169.126 526.442,161.293 532,153.5C 535.103,149.886 538.603,146.886 542.5,144.5 Z"/></g>
<g><path style="opacity:1" fill="#3965b6" d="M 352.5,149.5 C 353.833,149.5 355.167,149.5 356.5,149.5C 355.582,160.422 350.249,168.422 340.5,173.5C 339.914,173.291 339.414,172.957 339,172.5C 338.286,167.581 339.619,163.247 343,159.5C 345.696,155.639 348.863,152.306 352.5,149.5 Z"/></g>
<g><path style="opacity:1" fill="#3864b6" d="M 319.5,150.5 C 321.167,150.5 322.833,150.5 324.5,150.5C 323.793,156.2 320.46,159.2 314.5,159.5C 313.5,159.167 312.5,158.833 311.5,158.5C 313.882,155.452 316.548,152.785 319.5,150.5 Z"/></g>
<g><path style="opacity:1" fill="#3864b6" d="M 544.5,150.5 C 546.167,150.5 547.833,150.5 549.5,150.5C 548.793,156.2 545.46,159.2 539.5,159.5C 538.5,159.167 537.5,158.833 536.5,158.5C 538.882,155.452 541.548,152.785 544.5,150.5 Z"/></g>
<g><path style="opacity:1" fill="#3863b4" d="M 515.5,152.5 C 516.822,152.33 517.989,152.663 519,153.5C 522.126,160.828 520.626,166.994 514.5,172C 507.181,172.315 504.681,168.815 507,161.5C 508.688,157.315 511.521,154.315 515.5,152.5 Z"/></g>
<g><path style="opacity:1" fill="#325da1" d="M 421.5,135.5 C 420.797,148.488 420.463,161.488 420.5,174.5C 419.178,174.67 418.011,174.337 417,173.5C 416.83,167.472 416.33,161.472 415.5,155.5C 413.739,156.035 412.406,157.035 411.5,158.5C 410.5,158.5 409.5,158.5 408.5,158.5C 408.5,154.833 408.5,151.167 408.5,147.5C 413.486,144.179 417.82,140.179 421.5,135.5 Z"/></g>
<g><path style="opacity:1" fill="#3560b0" d="M 440.5,157.5 C 442.5,157.5 444.5,157.5 446.5,157.5C 447.525,167.12 443.358,173.12 434,175.5C 433.172,170.798 433.338,166.131 434.5,161.5C 436.565,160.143 438.565,158.81 440.5,157.5 Z"/></g>
<g><path style="opacity:1" fill="#6f91cd" d="M 395.5,178.5 C 395.827,168.319 395.494,158.319 394.5,148.5C 394.783,147.711 395.283,147.044 396,146.5C 396.825,157.341 396.659,168.008 395.5,178.5 Z"/></g>
<g><path style="opacity:0.876" fill="#232425" d="M 153.5,160.5 C 155.288,161.622 157.288,161.789 159.5,161C 162.461,159.735 165.461,158.569 168.5,157.5C 169.429,158.689 169.762,160.022 169.5,161.5C 165.965,162.893 162.298,164.06 158.5,165C 148.833,165.667 139.167,165.667 129.5,165C 125.943,162.602 122.277,160.435 118.5,158.5C 113.409,160.212 108.743,162.712 104.5,166C 99.3004,166.984 94.3004,166.484 89.5,164.5C 94.3167,163.833 98.9834,163.166 103.5,162.5C 108.097,158.853 112.764,155.186 117.5,151.5C 120.782,155.272 124.782,158.105 129.5,160C 137.493,160.5 145.493,160.666 153.5,160.5 Z"/></g>
<g><path style="opacity:1" fill="#0e1320" d="M 513.5,159.5 C 514.586,159.62 515.253,160.287 515.5,161.5C 514.935,163.405 513.935,165.071 512.5,166.5C 511.368,164.01 511.701,161.676 513.5,159.5 Z"/></g>
<g><path style="opacity:1" fill="#232424" d="M 216.5,158.5 C 225.458,162.645 234.125,167.312 242.5,172.5C 244.331,174.776 246.664,176.609 249.5,178C 255.528,178.17 261.528,178.67 267.5,179.5C 266.91,180.799 265.91,181.632 264.5,182C 253.999,183.665 244.999,180.832 237.5,173.5C 231.561,171.404 226.228,168.237 221.5,164C 219.323,162.798 216.989,162.298 214.5,162.5C 214.157,160.517 214.824,159.183 216.5,158.5 Z"/></g>
<g><path style="opacity:0.911" fill="#1b1c21" d="M 305.5,129.5 C 309.944,131.808 311.611,135.475 310.5,140.5C 314.33,139 318.33,138.333 322.5,138.5C 324.857,138.337 327.19,138.503 329.5,139C 332.336,141.007 335.003,143.174 337.5,145.5C 339.417,145.246 340.751,144.246 341.5,142.5C 343.858,140.322 346.525,138.655 349.5,137.5C 345.213,141.45 340.88,145.45 336.5,149.5C 333.169,140.501 326.835,137.334 317.5,140C 308.384,143.782 301.884,150.282 298,159.5C 295.495,170.982 299.328,179.482 309.5,185C 317.29,186.423 324.624,185.257 331.5,181.5C 335.349,184.324 339.682,185.157 344.5,184C 347.428,182.62 350.262,181.12 353,179.5C 354.03,179.836 354.53,180.503 354.5,181.5C 354.414,182.496 354.748,183.329 355.5,184C 347.761,187.345 339.761,188.179 331.5,186.5C 326.547,187.814 321.547,188.814 316.5,189.5C 308.937,189.806 303.77,186.473 301,179.5C 299.415,185.538 295.581,189.205 289.5,190.5C 288.5,190.167 287.5,189.833 286.5,189.5C 289.217,189.026 291.55,188.026 293.5,186.5C 294.504,185.317 295.338,183.984 296,182.5C 296.5,170.505 296.667,158.505 296.5,146.5C 308.268,145.294 311.268,139.627 305.5,129.5 Z"/></g>
<g><path style="opacity:0.694" fill="#232321" d="M 173.5,175.5 C 186.517,175.168 199.517,175.501 212.5,176.5C 212.167,177.167 211.833,177.833 211.5,178.5C 198.851,179.499 186.184,179.832 173.5,179.5C 173.5,178.167 173.5,176.833 173.5,175.5 Z"/></g>
<g><path style="opacity:0.941" fill="#1d1d20" d="M 448.5,126.5 C 441.485,126.729 434.485,127.229 427.5,128C 426.333,129.167 425.167,130.333 424,131.5C 422.293,147.291 421.127,163.124 420.5,179C 420.5,182.333 421.833,185 424.5,187C 434.928,188.691 443.928,185.857 451.5,178.5C 456.416,186.753 463.249,188.753 472,184.5C 476.333,185.089 480.5,186.089 484.5,187.5C 489.825,184.86 495.325,182.526 501,180.5C 506.048,184.511 511.715,185.511 518,183.5C 522.158,186.121 526.324,186.121 530.5,183.5C 539.912,186.945 548.745,185.945 557,180.5C 561.805,183.418 566.305,183.084 570.5,179.5C 570.804,180.15 571.137,180.817 571.5,181.5C 570.273,182.59 569.44,183.924 569,185.5C 567.527,187.007 565.693,187.674 563.5,187.5C 560.833,187.167 558.167,186.833 555.5,186.5C 544.875,188.497 534.208,189.164 523.5,188.5C 516.074,188.049 508.741,187.049 501.5,185.5C 495.374,186.765 489.374,188.432 483.5,190.5C 476.567,187.943 469.567,187.943 462.5,190.5C 461.167,190.333 459.833,190.167 458.5,190C 455.896,187.714 453.063,185.881 450,184.5C 445.512,186.645 441.012,188.812 436.5,191C 431.428,191.751 426.428,191.418 421.5,190C 417.968,186.766 417.302,183.266 419.5,179.5C 419.771,177.079 419.105,176.413 417.5,177.5C 416.522,177.023 415.689,176.357 415,175.5C 414.667,171.5 414.333,167.5 414,163.5C 412.301,162.594 410.467,162.261 408.5,162.5C 408.5,161.5 408.5,160.5 408.5,159.5C 409.791,159.737 410.791,159.404 411.5,158.5C 412.406,157.035 413.739,156.035 415.5,155.5C 416.33,161.472 416.83,167.472 417,173.5C 418.011,174.337 419.178,174.67 420.5,174.5C 420.463,161.488 420.797,148.488 421.5,135.5C 421.771,131.864 423.437,129.03 426.5,127C 432,126.5 437.5,126 443,125.5C 445.033,125.506 446.866,125.839 448.5,126.5 Z"/></g>
</svg>
